<mxfile host="app.diagrams.net" modified="2023-11-23T10:46:49.011Z" agent="Mozilla/5.0 (Windows NT 10.0; Win64; x64) AppleWebKit/537.36 (KHTML, like Gecko) Chrome/119.0.0.0 Safari/537.36" etag="WqIBwvd5Hveg8ZEOcjcM" version="22.1.3" type="device">
  <diagram name="Page-1" id="9f46799a-70d6-7492-0946-bef42562c5a5">
    <mxGraphModel dx="-585" dy="2146" grid="1" gridSize="10" guides="1" tooltips="1" connect="1" arrows="1" fold="1" page="1" pageScale="1" pageWidth="1100" pageHeight="850" background="none" math="0" shadow="0">
      <root>
        <mxCell id="0" />
        <mxCell id="1" parent="0" />
        <mxCell id="OSTpg5tp3kbhzDC-yykn-13" style="edgeStyle=orthogonalEdgeStyle;rounded=0;orthogonalLoop=1;jettySize=auto;html=1;entryX=0;entryY=0.5;entryDx=0;entryDy=0;" edge="1" parent="1" source="OSTpg5tp3kbhzDC-yykn-1" target="OSTpg5tp3kbhzDC-yykn-5">
          <mxGeometry relative="1" as="geometry" />
        </mxCell>
        <mxCell id="OSTpg5tp3kbhzDC-yykn-14" style="edgeStyle=orthogonalEdgeStyle;rounded=0;orthogonalLoop=1;jettySize=auto;html=1;entryX=0;entryY=0.5;entryDx=0;entryDy=0;" edge="1" parent="1" target="OSTpg5tp3kbhzDC-yykn-3">
          <mxGeometry relative="1" as="geometry">
            <mxPoint x="1175" y="-370" as="sourcePoint" />
            <Array as="points">
              <mxPoint x="1175" y="-260" />
            </Array>
          </mxGeometry>
        </mxCell>
        <mxCell id="OSTpg5tp3kbhzDC-yykn-15" style="edgeStyle=orthogonalEdgeStyle;rounded=0;orthogonalLoop=1;jettySize=auto;html=1;entryX=0.015;entryY=0.527;entryDx=0;entryDy=0;entryPerimeter=0;" edge="1" parent="1" target="OSTpg5tp3kbhzDC-yykn-4">
          <mxGeometry relative="1" as="geometry">
            <mxPoint x="1175" y="-370" as="sourcePoint" />
            <mxPoint x="1220" y="-360" as="targetPoint" />
            <Array as="points">
              <mxPoint x="1175" y="-320" />
              <mxPoint x="1238" y="-320" />
            </Array>
          </mxGeometry>
        </mxCell>
        <mxCell id="OSTpg5tp3kbhzDC-yykn-16" style="edgeStyle=orthogonalEdgeStyle;rounded=0;orthogonalLoop=1;jettySize=auto;html=1;" edge="1" parent="1" source="OSTpg5tp3kbhzDC-yykn-1" target="OSTpg5tp3kbhzDC-yykn-8">
          <mxGeometry relative="1" as="geometry" />
        </mxCell>
        <mxCell id="OSTpg5tp3kbhzDC-yykn-1" value="사용자" style="shape=umlActor;verticalLabelPosition=bottom;verticalAlign=top;html=1;outlineConnect=0;" vertex="1" parent="1">
          <mxGeometry x="1160" y="-467" width="30" height="60" as="geometry" />
        </mxCell>
        <mxCell id="OSTpg5tp3kbhzDC-yykn-3" value="로그인" style="rounded=0;whiteSpace=wrap;html=1;" vertex="1" parent="1">
          <mxGeometry x="1240" y="-280" width="70" height="40" as="geometry" />
        </mxCell>
        <mxCell id="OSTpg5tp3kbhzDC-yykn-4" value="회원가입" style="rounded=0;whiteSpace=wrap;html=1;" vertex="1" parent="1">
          <mxGeometry x="1240" y="-341" width="70" height="40" as="geometry" />
        </mxCell>
        <mxCell id="OSTpg5tp3kbhzDC-yykn-5" value="공지사항" style="rounded=0;whiteSpace=wrap;html=1;" vertex="1" parent="1">
          <mxGeometry x="1240" y="-700" width="70" height="40" as="geometry" />
        </mxCell>
        <mxCell id="OSTpg5tp3kbhzDC-yykn-17" style="edgeStyle=orthogonalEdgeStyle;rounded=0;orthogonalLoop=1;jettySize=auto;html=1;entryX=0;entryY=0.5;entryDx=0;entryDy=0;" edge="1" parent="1" source="OSTpg5tp3kbhzDC-yykn-8" target="OSTpg5tp3kbhzDC-yykn-11">
          <mxGeometry relative="1" as="geometry" />
        </mxCell>
        <mxCell id="OSTpg5tp3kbhzDC-yykn-48" style="edgeStyle=orthogonalEdgeStyle;rounded=0;orthogonalLoop=1;jettySize=auto;html=1;entryX=0;entryY=0.5;entryDx=0;entryDy=0;" edge="1" parent="1" source="OSTpg5tp3kbhzDC-yykn-8" target="OSTpg5tp3kbhzDC-yykn-47">
          <mxGeometry relative="1" as="geometry" />
        </mxCell>
        <mxCell id="OSTpg5tp3kbhzDC-yykn-67" style="edgeStyle=orthogonalEdgeStyle;rounded=0;orthogonalLoop=1;jettySize=auto;html=1;entryX=0;entryY=0.5;entryDx=0;entryDy=0;" edge="1" parent="1" source="OSTpg5tp3kbhzDC-yykn-8" target="OSTpg5tp3kbhzDC-yykn-66">
          <mxGeometry relative="1" as="geometry" />
        </mxCell>
        <mxCell id="OSTpg5tp3kbhzDC-yykn-8" value="지도" style="rounded=0;whiteSpace=wrap;html=1;" vertex="1" parent="1">
          <mxGeometry x="1240" y="-457" width="70" height="40" as="geometry" />
        </mxCell>
        <mxCell id="OSTpg5tp3kbhzDC-yykn-9" value="동 검색" style="rounded=0;whiteSpace=wrap;html=1;" vertex="1" parent="1">
          <mxGeometry x="1490" y="-642" width="70" height="40" as="geometry" />
        </mxCell>
        <mxCell id="OSTpg5tp3kbhzDC-yykn-10" value="지도 검색" style="rounded=0;whiteSpace=wrap;html=1;" vertex="1" parent="1">
          <mxGeometry x="1490" y="-562" width="70" height="40" as="geometry" />
        </mxCell>
        <mxCell id="OSTpg5tp3kbhzDC-yykn-20" style="edgeStyle=orthogonalEdgeStyle;rounded=0;orthogonalLoop=1;jettySize=auto;html=1;entryX=0;entryY=0.5;entryDx=0;entryDy=0;" edge="1" parent="1" source="OSTpg5tp3kbhzDC-yykn-11" target="OSTpg5tp3kbhzDC-yykn-10">
          <mxGeometry relative="1" as="geometry" />
        </mxCell>
        <mxCell id="OSTpg5tp3kbhzDC-yykn-21" style="edgeStyle=orthogonalEdgeStyle;rounded=0;orthogonalLoop=1;jettySize=auto;html=1;entryX=0;entryY=0.5;entryDx=0;entryDy=0;" edge="1" parent="1" source="OSTpg5tp3kbhzDC-yykn-11" target="OSTpg5tp3kbhzDC-yykn-9">
          <mxGeometry relative="1" as="geometry" />
        </mxCell>
        <mxCell id="OSTpg5tp3kbhzDC-yykn-24" style="edgeStyle=orthogonalEdgeStyle;rounded=0;orthogonalLoop=1;jettySize=auto;html=1;entryX=0.5;entryY=0;entryDx=0;entryDy=0;" edge="1" parent="1" source="OSTpg5tp3kbhzDC-yykn-11" target="OSTpg5tp3kbhzDC-yykn-22">
          <mxGeometry relative="1" as="geometry" />
        </mxCell>
        <mxCell id="OSTpg5tp3kbhzDC-yykn-11" value="매물 검색" style="rounded=0;whiteSpace=wrap;html=1;" vertex="1" parent="1">
          <mxGeometry x="1370" y="-602" width="70" height="40" as="geometry" />
        </mxCell>
        <mxCell id="OSTpg5tp3kbhzDC-yykn-26" style="edgeStyle=orthogonalEdgeStyle;rounded=0;orthogonalLoop=1;jettySize=auto;html=1;" edge="1" parent="1" source="OSTpg5tp3kbhzDC-yykn-22" target="OSTpg5tp3kbhzDC-yykn-25">
          <mxGeometry relative="1" as="geometry" />
        </mxCell>
        <mxCell id="OSTpg5tp3kbhzDC-yykn-28" style="edgeStyle=orthogonalEdgeStyle;rounded=0;orthogonalLoop=1;jettySize=auto;html=1;entryX=0;entryY=0.5;entryDx=0;entryDy=0;" edge="1" parent="1" source="OSTpg5tp3kbhzDC-yykn-22" target="OSTpg5tp3kbhzDC-yykn-27">
          <mxGeometry relative="1" as="geometry" />
        </mxCell>
        <mxCell id="OSTpg5tp3kbhzDC-yykn-22" value="매물 목록" style="rounded=0;whiteSpace=wrap;html=1;" vertex="1" parent="1">
          <mxGeometry x="1370" y="-472" width="70" height="40" as="geometry" />
        </mxCell>
        <mxCell id="OSTpg5tp3kbhzDC-yykn-30" style="edgeStyle=orthogonalEdgeStyle;rounded=0;orthogonalLoop=1;jettySize=auto;html=1;entryX=0;entryY=0.5;entryDx=0;entryDy=0;" edge="1" parent="1" source="OSTpg5tp3kbhzDC-yykn-25" target="OSTpg5tp3kbhzDC-yykn-29">
          <mxGeometry relative="1" as="geometry" />
        </mxCell>
        <mxCell id="OSTpg5tp3kbhzDC-yykn-25" value="매물 테이블" style="rounded=0;whiteSpace=wrap;html=1;" vertex="1" parent="1">
          <mxGeometry x="1490" y="-497" width="70" height="40" as="geometry" />
        </mxCell>
        <mxCell id="OSTpg5tp3kbhzDC-yykn-31" style="edgeStyle=orthogonalEdgeStyle;rounded=0;orthogonalLoop=1;jettySize=auto;html=1;entryX=0;entryY=0.5;entryDx=0;entryDy=0;" edge="1" parent="1" source="OSTpg5tp3kbhzDC-yykn-27" target="OSTpg5tp3kbhzDC-yykn-29">
          <mxGeometry relative="1" as="geometry" />
        </mxCell>
        <mxCell id="OSTpg5tp3kbhzDC-yykn-27" value="매물 마커" style="rounded=0;whiteSpace=wrap;html=1;" vertex="1" parent="1">
          <mxGeometry x="1490" y="-432" width="70" height="40" as="geometry" />
        </mxCell>
        <mxCell id="OSTpg5tp3kbhzDC-yykn-36" style="edgeStyle=orthogonalEdgeStyle;rounded=0;orthogonalLoop=1;jettySize=auto;html=1;entryX=0;entryY=0.5;entryDx=0;entryDy=0;" edge="1" parent="1" source="OSTpg5tp3kbhzDC-yykn-29" target="OSTpg5tp3kbhzDC-yykn-32">
          <mxGeometry relative="1" as="geometry" />
        </mxCell>
        <mxCell id="OSTpg5tp3kbhzDC-yykn-38" style="edgeStyle=orthogonalEdgeStyle;rounded=0;orthogonalLoop=1;jettySize=auto;html=1;entryX=0;entryY=0.5;entryDx=0;entryDy=0;" edge="1" parent="1" source="OSTpg5tp3kbhzDC-yykn-29" target="OSTpg5tp3kbhzDC-yykn-34">
          <mxGeometry relative="1" as="geometry" />
        </mxCell>
        <mxCell id="OSTpg5tp3kbhzDC-yykn-39" style="edgeStyle=orthogonalEdgeStyle;rounded=0;orthogonalLoop=1;jettySize=auto;html=1;entryX=0;entryY=0.5;entryDx=0;entryDy=0;" edge="1" parent="1" source="OSTpg5tp3kbhzDC-yykn-29" target="OSTpg5tp3kbhzDC-yykn-33">
          <mxGeometry relative="1" as="geometry" />
        </mxCell>
        <mxCell id="OSTpg5tp3kbhzDC-yykn-29" value="매물 조회" style="rounded=0;whiteSpace=wrap;html=1;" vertex="1" parent="1">
          <mxGeometry x="1610" y="-467" width="70" height="40" as="geometry" />
        </mxCell>
        <mxCell id="OSTpg5tp3kbhzDC-yykn-32" value="매물 정보" style="rounded=0;whiteSpace=wrap;html=1;" vertex="1" parent="1">
          <mxGeometry x="1720" y="-540" width="90" height="43" as="geometry" />
        </mxCell>
        <mxCell id="OSTpg5tp3kbhzDC-yykn-33" value="인근 매물&lt;br&gt;평균 실거래가" style="rounded=0;whiteSpace=wrap;html=1;" vertex="1" parent="1">
          <mxGeometry x="1720" y="-390" width="90" height="40" as="geometry" />
        </mxCell>
        <mxCell id="OSTpg5tp3kbhzDC-yykn-43" style="edgeStyle=orthogonalEdgeStyle;rounded=0;orthogonalLoop=1;jettySize=auto;html=1;entryX=0;entryY=0.5;entryDx=0;entryDy=0;" edge="1" parent="1" source="OSTpg5tp3kbhzDC-yykn-34" target="OSTpg5tp3kbhzDC-yykn-35">
          <mxGeometry relative="1" as="geometry" />
        </mxCell>
        <mxCell id="OSTpg5tp3kbhzDC-yykn-44" style="edgeStyle=orthogonalEdgeStyle;rounded=0;orthogonalLoop=1;jettySize=auto;html=1;" edge="1" parent="1" source="OSTpg5tp3kbhzDC-yykn-34" target="OSTpg5tp3kbhzDC-yykn-40">
          <mxGeometry relative="1" as="geometry" />
        </mxCell>
        <mxCell id="OSTpg5tp3kbhzDC-yykn-45" style="edgeStyle=orthogonalEdgeStyle;rounded=0;orthogonalLoop=1;jettySize=auto;html=1;entryX=0;entryY=0.5;entryDx=0;entryDy=0;" edge="1" parent="1" source="OSTpg5tp3kbhzDC-yykn-34" target="OSTpg5tp3kbhzDC-yykn-41">
          <mxGeometry relative="1" as="geometry" />
        </mxCell>
        <mxCell id="OSTpg5tp3kbhzDC-yykn-46" style="edgeStyle=orthogonalEdgeStyle;rounded=0;orthogonalLoop=1;jettySize=auto;html=1;entryX=0;entryY=0.5;entryDx=0;entryDy=0;" edge="1" parent="1" source="OSTpg5tp3kbhzDC-yykn-34" target="OSTpg5tp3kbhzDC-yykn-42">
          <mxGeometry relative="1" as="geometry" />
        </mxCell>
        <mxCell id="OSTpg5tp3kbhzDC-yykn-34" value="인근 상권 매출" style="rounded=0;whiteSpace=wrap;html=1;" vertex="1" parent="1">
          <mxGeometry x="1720" y="-467" width="90" height="40" as="geometry" />
        </mxCell>
        <mxCell id="OSTpg5tp3kbhzDC-yykn-35" value="시간대별 매출" style="rounded=0;whiteSpace=wrap;html=1;" vertex="1" parent="1">
          <mxGeometry x="1850" y="-553" width="90" height="40" as="geometry" />
        </mxCell>
        <mxCell id="OSTpg5tp3kbhzDC-yykn-40" value="성별 매출" style="rounded=0;whiteSpace=wrap;html=1;" vertex="1" parent="1">
          <mxGeometry x="1850" y="-498" width="90" height="40" as="geometry" />
        </mxCell>
        <mxCell id="OSTpg5tp3kbhzDC-yykn-41" value="요일별 매출" style="rounded=0;whiteSpace=wrap;html=1;" vertex="1" parent="1">
          <mxGeometry x="1850" y="-438" width="90" height="40" as="geometry" />
        </mxCell>
        <mxCell id="OSTpg5tp3kbhzDC-yykn-42" value="성별-연령대별&lt;br&gt;매출" style="rounded=0;whiteSpace=wrap;html=1;" vertex="1" parent="1">
          <mxGeometry x="1850" y="-381" width="90" height="40" as="geometry" />
        </mxCell>
        <mxCell id="OSTpg5tp3kbhzDC-yykn-56" style="edgeStyle=orthogonalEdgeStyle;rounded=0;orthogonalLoop=1;jettySize=auto;html=1;entryX=0;entryY=0.5;entryDx=0;entryDy=0;" edge="1" parent="1" source="OSTpg5tp3kbhzDC-yykn-47" target="OSTpg5tp3kbhzDC-yykn-50">
          <mxGeometry relative="1" as="geometry">
            <Array as="points">
              <mxPoint x="1405" y="-310" />
            </Array>
          </mxGeometry>
        </mxCell>
        <mxCell id="OSTpg5tp3kbhzDC-yykn-62" style="edgeStyle=orthogonalEdgeStyle;rounded=0;orthogonalLoop=1;jettySize=auto;html=1;entryX=0;entryY=0.5;entryDx=0;entryDy=0;" edge="1" parent="1" source="OSTpg5tp3kbhzDC-yykn-47" target="OSTpg5tp3kbhzDC-yykn-51">
          <mxGeometry relative="1" as="geometry">
            <Array as="points">
              <mxPoint x="1405" y="-229" />
            </Array>
          </mxGeometry>
        </mxCell>
        <mxCell id="OSTpg5tp3kbhzDC-yykn-63" style="edgeStyle=orthogonalEdgeStyle;rounded=0;orthogonalLoop=1;jettySize=auto;html=1;entryX=0;entryY=0.5;entryDx=0;entryDy=0;" edge="1" parent="1" source="OSTpg5tp3kbhzDC-yykn-47" target="OSTpg5tp3kbhzDC-yykn-52">
          <mxGeometry relative="1" as="geometry">
            <Array as="points">
              <mxPoint x="1405" y="-179" />
            </Array>
          </mxGeometry>
        </mxCell>
        <mxCell id="OSTpg5tp3kbhzDC-yykn-64" style="edgeStyle=orthogonalEdgeStyle;rounded=0;orthogonalLoop=1;jettySize=auto;html=1;entryX=0;entryY=0.5;entryDx=0;entryDy=0;" edge="1" parent="1" source="OSTpg5tp3kbhzDC-yykn-47" target="OSTpg5tp3kbhzDC-yykn-53">
          <mxGeometry relative="1" as="geometry">
            <Array as="points">
              <mxPoint x="1405" y="-130" />
              <mxPoint x="1500" y="-130" />
            </Array>
          </mxGeometry>
        </mxCell>
        <mxCell id="OSTpg5tp3kbhzDC-yykn-65" style="edgeStyle=orthogonalEdgeStyle;rounded=0;orthogonalLoop=1;jettySize=auto;html=1;entryX=0;entryY=0.5;entryDx=0;entryDy=0;" edge="1" parent="1" source="OSTpg5tp3kbhzDC-yykn-47" target="OSTpg5tp3kbhzDC-yykn-54">
          <mxGeometry relative="1" as="geometry">
            <Array as="points">
              <mxPoint x="1405" y="-79" />
            </Array>
          </mxGeometry>
        </mxCell>
        <mxCell id="OSTpg5tp3kbhzDC-yykn-47" value="지도 내&lt;br&gt;상가 조회" style="rounded=0;whiteSpace=wrap;html=1;" vertex="1" parent="1">
          <mxGeometry x="1370" y="-350" width="70" height="40" as="geometry" />
        </mxCell>
        <mxCell id="OSTpg5tp3kbhzDC-yykn-49" value="음식 업종&lt;br&gt;&amp;nbsp;조회" style="rounded=0;whiteSpace=wrap;html=1;" vertex="1" parent="1">
          <mxGeometry x="1500" y="-350" width="80" height="40" as="geometry" />
        </mxCell>
        <mxCell id="OSTpg5tp3kbhzDC-yykn-50" value="소매 업종&lt;br&gt;조회" style="rounded=0;whiteSpace=wrap;html=1;" vertex="1" parent="1">
          <mxGeometry x="1500" y="-299" width="80" height="40" as="geometry" />
        </mxCell>
        <mxCell id="OSTpg5tp3kbhzDC-yykn-51" value="서비스 업종&lt;br&gt;조회" style="rounded=0;whiteSpace=wrap;html=1;" vertex="1" parent="1">
          <mxGeometry x="1500" y="-249" width="80" height="40" as="geometry" />
        </mxCell>
        <mxCell id="OSTpg5tp3kbhzDC-yykn-52" value="오락 업종&lt;br&gt;조회" style="rounded=0;whiteSpace=wrap;html=1;" vertex="1" parent="1">
          <mxGeometry x="1500" y="-199" width="80" height="40" as="geometry" />
        </mxCell>
        <mxCell id="OSTpg5tp3kbhzDC-yykn-53" value="교육 업종&lt;br&gt;조회" style="rounded=0;whiteSpace=wrap;html=1;" vertex="1" parent="1">
          <mxGeometry x="1500" y="-150" width="80" height="40" as="geometry" />
        </mxCell>
        <mxCell id="OSTpg5tp3kbhzDC-yykn-54" value="숙박 업종&lt;br&gt;조회" style="rounded=0;whiteSpace=wrap;html=1;" vertex="1" parent="1">
          <mxGeometry x="1500" y="-99" width="80" height="40" as="geometry" />
        </mxCell>
        <mxCell id="OSTpg5tp3kbhzDC-yykn-55" style="edgeStyle=orthogonalEdgeStyle;rounded=0;orthogonalLoop=1;jettySize=auto;html=1;entryX=0;entryY=0.5;entryDx=0;entryDy=0;" edge="1" parent="1" source="OSTpg5tp3kbhzDC-yykn-47" target="OSTpg5tp3kbhzDC-yykn-49">
          <mxGeometry relative="1" as="geometry">
            <mxPoint x="1470" y="-350" as="targetPoint" />
          </mxGeometry>
        </mxCell>
        <mxCell id="OSTpg5tp3kbhzDC-yykn-72" style="edgeStyle=orthogonalEdgeStyle;rounded=0;orthogonalLoop=1;jettySize=auto;html=1;entryX=0;entryY=0.5;entryDx=0;entryDy=0;" edge="1" parent="1" source="OSTpg5tp3kbhzDC-yykn-66" target="OSTpg5tp3kbhzDC-yykn-71">
          <mxGeometry relative="1" as="geometry" />
        </mxCell>
        <mxCell id="OSTpg5tp3kbhzDC-yykn-73" style="edgeStyle=orthogonalEdgeStyle;rounded=0;orthogonalLoop=1;jettySize=auto;html=1;entryX=0;entryY=0.5;entryDx=0;entryDy=0;" edge="1" parent="1" source="OSTpg5tp3kbhzDC-yykn-66" target="OSTpg5tp3kbhzDC-yykn-70">
          <mxGeometry relative="1" as="geometry" />
        </mxCell>
        <mxCell id="OSTpg5tp3kbhzDC-yykn-74" style="edgeStyle=orthogonalEdgeStyle;rounded=0;orthogonalLoop=1;jettySize=auto;html=1;entryX=0;entryY=0.5;entryDx=0;entryDy=0;" edge="1" parent="1" source="OSTpg5tp3kbhzDC-yykn-66" target="OSTpg5tp3kbhzDC-yykn-69">
          <mxGeometry relative="1" as="geometry" />
        </mxCell>
        <mxCell id="OSTpg5tp3kbhzDC-yykn-75" style="edgeStyle=orthogonalEdgeStyle;rounded=0;orthogonalLoop=1;jettySize=auto;html=1;entryX=0;entryY=0.5;entryDx=0;entryDy=0;" edge="1" parent="1" source="OSTpg5tp3kbhzDC-yykn-66" target="OSTpg5tp3kbhzDC-yykn-68">
          <mxGeometry relative="1" as="geometry" />
        </mxCell>
        <mxCell id="OSTpg5tp3kbhzDC-yykn-66" value="지도&lt;br&gt;타입 변경" style="rounded=0;whiteSpace=wrap;html=1;" vertex="1" parent="1">
          <mxGeometry x="1370" y="-710" width="70" height="40" as="geometry" />
        </mxCell>
        <mxCell id="OSTpg5tp3kbhzDC-yykn-68" value="일반 보기" style="rounded=0;whiteSpace=wrap;html=1;" vertex="1" parent="1">
          <mxGeometry x="1490" y="-890" width="70" height="40" as="geometry" />
        </mxCell>
        <mxCell id="OSTpg5tp3kbhzDC-yykn-69" value="교통 상황&lt;br&gt;&amp;nbsp;보기" style="rounded=0;whiteSpace=wrap;html=1;" vertex="1" parent="1">
          <mxGeometry x="1490" y="-830" width="70" height="40" as="geometry" />
        </mxCell>
        <mxCell id="OSTpg5tp3kbhzDC-yykn-70" value="지적편집도&lt;br&gt;&amp;nbsp;보기" style="rounded=0;whiteSpace=wrap;html=1;" vertex="1" parent="1">
          <mxGeometry x="1490" y="-770" width="70" height="40" as="geometry" />
        </mxCell>
        <mxCell id="OSTpg5tp3kbhzDC-yykn-71" value="위성 사진&lt;br&gt;보기" style="rounded=0;whiteSpace=wrap;html=1;" vertex="1" parent="1">
          <mxGeometry x="1490" y="-710" width="70" height="40" as="geometry" />
        </mxCell>
        <mxCell id="OSTpg5tp3kbhzDC-yykn-91" style="edgeStyle=orthogonalEdgeStyle;rounded=0;orthogonalLoop=1;jettySize=auto;html=1;" edge="1" parent="1" source="OSTpg5tp3kbhzDC-yykn-76" target="OSTpg5tp3kbhzDC-yykn-80">
          <mxGeometry relative="1" as="geometry" />
        </mxCell>
        <mxCell id="OSTpg5tp3kbhzDC-yykn-99" style="edgeStyle=orthogonalEdgeStyle;rounded=0;orthogonalLoop=1;jettySize=auto;html=1;entryX=0;entryY=0.5;entryDx=0;entryDy=0;" edge="1" parent="1" source="OSTpg5tp3kbhzDC-yykn-76" target="OSTpg5tp3kbhzDC-yykn-5">
          <mxGeometry relative="1" as="geometry" />
        </mxCell>
        <mxCell id="OSTpg5tp3kbhzDC-yykn-100" style="edgeStyle=orthogonalEdgeStyle;rounded=0;orthogonalLoop=1;jettySize=auto;html=1;entryX=0;entryY=0.5;entryDx=0;entryDy=0;" edge="1" parent="1" source="OSTpg5tp3kbhzDC-yykn-76" target="OSTpg5tp3kbhzDC-yykn-8">
          <mxGeometry relative="1" as="geometry" />
        </mxCell>
        <mxCell id="OSTpg5tp3kbhzDC-yykn-76" value="관리자" style="shape=umlActor;verticalLabelPosition=bottom;verticalAlign=top;html=1;outlineConnect=0;" vertex="1" parent="1">
          <mxGeometry x="1160" y="-870" width="30" height="60" as="geometry" />
        </mxCell>
        <mxCell id="OSTpg5tp3kbhzDC-yykn-88" style="edgeStyle=orthogonalEdgeStyle;rounded=0;orthogonalLoop=1;jettySize=auto;html=1;" edge="1" parent="1" source="OSTpg5tp3kbhzDC-yykn-80" target="OSTpg5tp3kbhzDC-yykn-83">
          <mxGeometry relative="1" as="geometry" />
        </mxCell>
        <mxCell id="OSTpg5tp3kbhzDC-yykn-89" style="edgeStyle=orthogonalEdgeStyle;rounded=0;orthogonalLoop=1;jettySize=auto;html=1;entryX=0;entryY=0.5;entryDx=0;entryDy=0;" edge="1" parent="1" source="OSTpg5tp3kbhzDC-yykn-80" target="OSTpg5tp3kbhzDC-yykn-82">
          <mxGeometry relative="1" as="geometry" />
        </mxCell>
        <mxCell id="OSTpg5tp3kbhzDC-yykn-90" style="edgeStyle=orthogonalEdgeStyle;rounded=0;orthogonalLoop=1;jettySize=auto;html=1;entryX=0;entryY=0.5;entryDx=0;entryDy=0;" edge="1" parent="1" source="OSTpg5tp3kbhzDC-yykn-80" target="OSTpg5tp3kbhzDC-yykn-84">
          <mxGeometry relative="1" as="geometry" />
        </mxCell>
        <mxCell id="OSTpg5tp3kbhzDC-yykn-80" value="공지사항 &lt;br&gt;관리" style="rounded=0;whiteSpace=wrap;html=1;" vertex="1" parent="1">
          <mxGeometry x="1240" y="-860" width="70" height="40" as="geometry" />
        </mxCell>
        <mxCell id="OSTpg5tp3kbhzDC-yykn-82" value="공지사항 &lt;br&gt;작성" style="rounded=0;whiteSpace=wrap;html=1;" vertex="1" parent="1">
          <mxGeometry x="1350" y="-910" width="70" height="40" as="geometry" />
        </mxCell>
        <mxCell id="OSTpg5tp3kbhzDC-yykn-83" value="공지사항 &lt;br&gt;수정" style="rounded=0;whiteSpace=wrap;html=1;" vertex="1" parent="1">
          <mxGeometry x="1350" y="-860" width="70" height="40" as="geometry" />
        </mxCell>
        <mxCell id="OSTpg5tp3kbhzDC-yykn-84" value="공지사항 &lt;br&gt;삭제" style="rounded=0;whiteSpace=wrap;html=1;" vertex="1" parent="1">
          <mxGeometry x="1350" y="-810" width="70" height="40" as="geometry" />
        </mxCell>
        <mxCell id="OSTpg5tp3kbhzDC-yykn-108" style="edgeStyle=orthogonalEdgeStyle;rounded=0;orthogonalLoop=1;jettySize=auto;html=1;entryX=0;entryY=0.5;entryDx=0;entryDy=0;" edge="1" parent="1" source="OSTpg5tp3kbhzDC-yykn-102" target="OSTpg5tp3kbhzDC-yykn-107">
          <mxGeometry relative="1" as="geometry" />
        </mxCell>
        <mxCell id="OSTpg5tp3kbhzDC-yykn-110" style="edgeStyle=orthogonalEdgeStyle;rounded=0;orthogonalLoop=1;jettySize=auto;html=1;entryX=0;entryY=0.5;entryDx=0;entryDy=0;" edge="1" parent="1" source="OSTpg5tp3kbhzDC-yykn-102" target="OSTpg5tp3kbhzDC-yykn-109">
          <mxGeometry relative="1" as="geometry" />
        </mxCell>
        <mxCell id="OSTpg5tp3kbhzDC-yykn-112" style="edgeStyle=orthogonalEdgeStyle;rounded=0;orthogonalLoop=1;jettySize=auto;html=1;entryX=0;entryY=0.5;entryDx=0;entryDy=0;" edge="1" parent="1" source="OSTpg5tp3kbhzDC-yykn-102" target="OSTpg5tp3kbhzDC-yykn-111">
          <mxGeometry relative="1" as="geometry" />
        </mxCell>
        <mxCell id="OSTpg5tp3kbhzDC-yykn-102" value="회원" style="shape=umlActor;verticalLabelPosition=bottom;verticalAlign=top;html=1;outlineConnect=0;" vertex="1" parent="1">
          <mxGeometry x="1160" y="-190" width="30" height="60" as="geometry" />
        </mxCell>
        <mxCell id="OSTpg5tp3kbhzDC-yykn-104" value="" style="endArrow=classic;html=1;rounded=0;" edge="1" parent="1">
          <mxGeometry width="50" height="50" relative="1" as="geometry">
            <mxPoint x="1175" y="-360" as="sourcePoint" />
            <mxPoint x="1175" y="-200" as="targetPoint" />
          </mxGeometry>
        </mxCell>
        <mxCell id="OSTpg5tp3kbhzDC-yykn-105" value="매물 등록" style="rounded=0;whiteSpace=wrap;html=1;" vertex="1" parent="1">
          <mxGeometry x="1240" y="-220" width="70" height="40" as="geometry" />
        </mxCell>
        <mxCell id="OSTpg5tp3kbhzDC-yykn-106" style="edgeStyle=orthogonalEdgeStyle;rounded=0;orthogonalLoop=1;jettySize=auto;html=1;entryX=-0.059;entryY=0.557;entryDx=0;entryDy=0;entryPerimeter=0;" edge="1" parent="1" source="OSTpg5tp3kbhzDC-yykn-102" target="OSTpg5tp3kbhzDC-yykn-105">
          <mxGeometry relative="1" as="geometry" />
        </mxCell>
        <mxCell id="OSTpg5tp3kbhzDC-yykn-107" value="회원 정보&lt;br&gt;수정" style="rounded=0;whiteSpace=wrap;html=1;" vertex="1" parent="1">
          <mxGeometry x="1240" y="-120" width="70" height="40" as="geometry" />
        </mxCell>
        <mxCell id="OSTpg5tp3kbhzDC-yykn-109" value="로그아웃" style="rounded=0;whiteSpace=wrap;html=1;" vertex="1" parent="1">
          <mxGeometry x="1240" y="-170" width="70" height="40" as="geometry" />
        </mxCell>
        <mxCell id="OSTpg5tp3kbhzDC-yykn-111" value="회원 정보&lt;br&gt;탈퇴" style="rounded=0;whiteSpace=wrap;html=1;" vertex="1" parent="1">
          <mxGeometry x="1240" y="-70" width="70" height="40" as="geometry" />
        </mxCell>
      </root>
    </mxGraphModel>
  </diagram>
</mxfile>
